<svg width="1014" height="110" viewBox="0 0 1014 110" fill="none" xmlns="http://www.w3.org/2000/svg">
<path d="M97.5037 41.9264C97.5037 17.6642 79.0772 2.39648 50.0878 2.39648H3.04638C1.36522 2.39648 0 3.76878 0 5.45866V104.146C0 105.836 1.36522 107.208 3.04638 107.208H32.0358C33.7169 107.208 35.0821 105.836 35.0821 104.146V82.0326C35.0821 81.3857 35.6048 80.8642 36.2445 80.8642H43.9795C44.3656 80.8642 44.7284 81.0563 44.9429 81.3778L61.3684 105.86C61.934 106.703 62.8818 107.208 63.896 107.208H93.9854C96.431 107.208 97.8782 104.46 96.5052 102.425L78.613 75.9475C78.223 75.3711 78.4219 74.5948 79.0304 74.2576C90.8025 67.7255 97.5037 56.5903 97.5037 41.9224V41.9264ZM47.8528 54.2025H36.2445C35.6009 54.2025 35.0821 53.6771 35.0821 53.0341V30.8147C35.0821 30.1678 35.6048 29.6463 36.2445 29.6463H47.8528C57.5146 29.6463 62.1251 34.2925 62.1251 41.9264C62.1251 49.5602 57.5146 54.2064 47.8528 54.2064V54.2025Z" fill="white"/>
<path d="M165.268 0C131.376 0 106.56 23.0663 106.56 54.8133C106.56 86.5603 131.376 109.627 165.268 109.627C199.161 109.627 223.973 86.5642 223.973 54.8133C223.973 23.0624 199.157 0 165.268 0ZM165.268 81.0123C152.33 81.0123 141.935 71.1318 141.935 54.8133C141.935 38.4948 152.346 28.6143 165.268 28.6143C178.191 28.6143 188.602 38.4948 188.602 54.8133C188.602 71.1318 178.191 81.0123 165.268 81.0123Z" fill="white"/>
<path d="M291.297 81.0123C278.358 81.0123 267.963 71.1318 267.963 54.8133C267.963 38.4948 278.374 28.6143 291.297 28.6143C304.219 28.6143 310.39 34.8798 313.394 45.6699C313.534 46.1796 313.99 46.5364 314.513 46.5364H348.058C348.772 46.5364 349.326 45.8934 349.209 45.1837C344.727 18.4907 321.643 0 291.297 0C260.95 0 232.592 23.0663 232.592 54.8133C232.592 86.5603 257.408 109.627 291.297 109.627C325.185 109.627 344.731 91.1908 349.186 64.6154C349.303 63.9057 348.749 63.2588 348.035 63.2588H314.486C313.967 63.2588 313.514 63.6117 313.37 64.1135C310.222 74.8174 301.551 81.0319 291.3 81.0319V81.0123H291.297Z" fill="#FCED00"/>
<path d="M477.067 65.3335C482.657 65.3335 487.189 60.7697 487.189 55.1394C487.189 49.509 482.657 44.9452 477.067 44.9452C471.478 44.9452 466.949 49.509 466.949 55.1394C466.949 60.7697 471.482 65.3335 477.067 65.3335Z" fill="#FCED00"/>
<path d="M464.543 102.081L423.173 55.1883C422.62 54.5609 422.62 53.616 423.173 52.9887L463.779 7.22859C465.522 5.26425 464.134 2.15503 461.517 2.15503H428.155C427.296 2.15503 426.473 2.52359 425.9 3.1666L400.605 31.4437C399.668 32.4905 397.944 31.8162 397.956 30.4125L398.108 5.22112C398.12 3.53124 396.758 2.15503 395.077 2.15503H365.44C363.767 2.15503 362.41 3.51948 362.41 5.20152V104.281C362.41 105.963 363.767 107.328 365.44 107.328H394.481C396.146 107.328 397.504 105.975 397.511 104.301L397.675 77.3449C397.683 75.9765 399.36 75.3296 400.273 76.3412L427.281 106.151C427.854 106.786 428.669 107.147 429.524 107.147H462.277C464.891 107.147 466.279 104.046 464.543 102.078V102.081Z" fill="white"/>
<path d="M974.585 78.1145V31.829H984.371V50.9263H1004.24V31.829H1014V78.1145H1004.24V58.9946H984.371V78.1145H974.585Z" fill="white"/>
<path d="M955.477 48.0303H945.578C945.397 46.7496 945.028 45.612 944.47 44.6176C943.913 43.6081 943.197 42.7493 942.323 42.0412C941.449 41.333 940.44 40.7906 939.295 40.4139C938.165 40.0373 936.937 39.8489 935.611 39.8489C933.215 39.8489 931.129 40.4441 929.351 41.6344C927.573 42.8096 926.194 44.5272 925.215 46.7872C924.235 49.0322 923.746 51.7593 923.746 54.9686C923.746 58.2682 924.235 61.0405 925.215 63.2855C926.209 65.5305 927.595 67.2255 929.373 68.3706C931.151 69.5156 933.208 70.0882 935.543 70.0882C936.854 70.0882 938.067 69.9149 939.182 69.5684C940.312 69.2218 941.314 68.7171 942.188 68.0542C943.062 67.3761 943.785 66.555 944.357 65.5907C944.945 64.6264 945.352 63.5266 945.578 62.2911L955.477 62.3363C955.221 64.4607 954.58 66.5098 953.556 68.4836C952.546 70.4423 951.183 72.1976 949.465 73.7494C947.762 75.2863 945.728 76.5067 943.363 77.4107C941.012 78.2996 938.353 78.7441 935.385 78.7441C931.257 78.7441 927.565 77.81 924.311 75.9417C921.071 74.0734 918.51 71.3689 916.627 67.8282C914.758 64.2874 913.824 60.0009 913.824 54.9686C913.824 49.9211 914.773 45.6271 916.672 42.0864C918.57 38.5456 921.147 35.8487 924.401 33.9954C927.656 32.1271 931.317 31.193 935.385 31.193C938.067 31.193 940.553 31.5697 942.843 32.323C945.148 33.0764 947.19 34.1762 948.968 35.6227C950.746 37.054 952.192 38.8093 953.307 40.8885C954.437 42.9678 955.16 45.3483 955.477 48.0303Z" fill="white"/>
<path d="M863.578 78.1145V31.829H894.767V39.8973H873.364V50.9263H893.162V58.9946H873.364V70.0462H894.857V78.1145H863.578Z" fill="white"/>
<path d="M807.214 39.8973V31.829H845.227V39.8973H831.057V78.1145H821.384V39.8973H807.214Z" fill="white"/>
<path d="M788.796 31.829V78.1145H780.344L760.207 48.9826H759.868V78.1145H750.082V31.829H758.67L778.649 60.9382H779.056V31.829H788.796Z" fill="white"/>
<path d="M698.36 78.1145H687.874L703.852 31.829H716.463L732.419 78.1145H721.932L710.338 42.4059H709.977L698.36 78.1145ZM697.705 59.9212H722.475V67.5601H697.705V59.9212Z" fill="white"/>
<path d="M672.144 48.0303H662.245C662.065 46.7496 661.695 45.612 661.138 44.6176C660.581 43.6081 659.865 42.7493 658.991 42.0412C658.117 41.333 657.108 40.7906 655.963 40.4139C654.833 40.0373 653.605 39.8489 652.279 39.8489C649.883 39.8489 647.796 40.4441 646.018 41.6344C644.24 42.8096 642.862 44.5272 641.883 46.7872C640.903 49.0322 640.413 51.7593 640.413 54.9686C640.413 58.2682 640.903 61.0405 641.883 63.2855C642.877 65.5305 644.263 67.2255 646.041 68.3706C647.819 69.5156 649.876 70.0882 652.211 70.0882C653.522 70.0882 654.735 69.9149 655.85 69.5684C656.98 69.2218 657.982 68.7171 658.855 68.0542C659.729 67.3761 660.452 66.555 661.025 65.5907C661.613 64.6264 662.019 63.5266 662.245 62.2911L672.144 62.3363C671.888 64.4607 671.248 66.5098 670.223 68.4836C669.214 70.4423 667.85 72.1976 666.133 73.7494C664.43 75.2863 662.396 76.5067 660.031 77.4107C657.68 78.2996 655.021 78.7441 652.053 78.7441C647.924 78.7441 644.233 77.81 640.979 75.9417C637.739 74.0734 635.178 71.3689 633.294 67.8282C631.426 64.2874 630.492 60.0009 630.492 54.9686C630.492 49.9211 631.441 45.6271 633.34 42.0864C635.238 38.5456 637.814 35.8487 641.069 33.9954C644.323 32.1271 647.985 31.193 652.053 31.193C654.735 31.193 657.221 31.5697 659.511 32.323C661.816 33.0764 663.858 34.1762 665.635 35.6227C667.413 37.054 668.86 38.8093 669.975 40.8885C671.105 42.9678 671.828 45.3483 672.144 48.0303Z" fill="white"/>
<path d="M611.128 31.829V78.1145H602.675L582.539 48.9826H582.2V78.1145H572.414V31.829H581.002L600.98 60.9382H601.387V31.829H611.128Z" fill="white"/>
<path d="M521.354 78.1145V31.829H552.542V39.8973H531.14V50.9263H550.938V58.9946H531.14V70.0462H552.633V78.1145H521.354Z" fill="white"/>
</svg>
